<mxfile host="app.diagrams.net" modified="2023-12-11T09:41:14.515Z" agent="5.0 (Macintosh; Intel Mac OS X 10_15_7) AppleWebKit/537.36 (KHTML, like Gecko) Chrome/119.0.0.0 Safari/537.36" version="20.6.0" etag="9QkPItCslf7aT6OB0yye" type="github">
  <diagram id="ScLOEaVVhtwlO5P5pwpV" name="第 1 页">
    <mxGraphModel dx="996" dy="562" grid="1" gridSize="10" guides="1" tooltips="1" connect="1" arrows="1" fold="1" page="1" pageScale="1" pageWidth="827" pageHeight="1169" math="0" shadow="0">
      <root>
        <mxCell id="0" />
        <mxCell id="1" parent="0" />
        <mxCell id="4OeSZwVJ-DLJTT9ifUoT-6" value="数据刷新" style="edgeStyle=orthogonalEdgeStyle;rounded=0;orthogonalLoop=1;jettySize=auto;html=1;entryX=0.104;entryY=0.017;entryDx=0;entryDy=0;entryPerimeter=0;" edge="1" parent="1" source="4OeSZwVJ-DLJTT9ifUoT-1" target="4OeSZwVJ-DLJTT9ifUoT-3">
          <mxGeometry relative="1" as="geometry" />
        </mxCell>
        <mxCell id="4OeSZwVJ-DLJTT9ifUoT-1" value="i=1;" style="rounded=0;whiteSpace=wrap;html=1;" vertex="1" parent="1">
          <mxGeometry x="140" y="460" width="120" height="60" as="geometry" />
        </mxCell>
        <mxCell id="4OeSZwVJ-DLJTT9ifUoT-8" style="edgeStyle=orthogonalEdgeStyle;rounded=0;orthogonalLoop=1;jettySize=auto;html=1;entryX=0.633;entryY=0.017;entryDx=0;entryDy=0;entryPerimeter=0;" edge="1" parent="1" source="4OeSZwVJ-DLJTT9ifUoT-2" target="4OeSZwVJ-DLJTT9ifUoT-3">
          <mxGeometry relative="1" as="geometry" />
        </mxCell>
        <mxCell id="4OeSZwVJ-DLJTT9ifUoT-14" value="数据刷新" style="edgeLabel;html=1;align=center;verticalAlign=middle;resizable=0;points=[];" vertex="1" connectable="0" parent="4OeSZwVJ-DLJTT9ifUoT-8">
          <mxGeometry x="-0.2849" y="-2" relative="1" as="geometry">
            <mxPoint as="offset" />
          </mxGeometry>
        </mxCell>
        <mxCell id="4OeSZwVJ-DLJTT9ifUoT-2" value="i=2;" style="rounded=0;whiteSpace=wrap;html=1;" vertex="1" parent="1">
          <mxGeometry x="440" y="450" width="120" height="60" as="geometry" />
        </mxCell>
        <mxCell id="4OeSZwVJ-DLJTT9ifUoT-3" value="i = 0;" style="rounded=0;whiteSpace=wrap;html=1;" vertex="1" parent="1">
          <mxGeometry x="140" y="610" width="570" height="60" as="geometry" />
        </mxCell>
        <mxCell id="4OeSZwVJ-DLJTT9ifUoT-4" value="t1线程" style="text;html=1;strokeColor=none;fillColor=none;align=center;verticalAlign=middle;whiteSpace=wrap;rounded=0;" vertex="1" parent="1">
          <mxGeometry x="180" y="430" width="60" height="30" as="geometry" />
        </mxCell>
        <mxCell id="4OeSZwVJ-DLJTT9ifUoT-5" value="&lt;span style=&quot;color: rgb(0, 0, 0); font-family: Helvetica; font-size: 12px; font-style: normal; font-variant-ligatures: normal; font-variant-caps: normal; font-weight: 400; letter-spacing: normal; orphans: 2; text-align: center; text-indent: 0px; text-transform: none; widows: 2; word-spacing: 0px; -webkit-text-stroke-width: 0px; background-color: rgb(248, 249, 250); text-decoration-thickness: initial; text-decoration-style: initial; text-decoration-color: initial; float: none; display: inline !important;&quot;&gt;t2线程&lt;/span&gt;" style="text;whiteSpace=wrap;html=1;" vertex="1" parent="1">
          <mxGeometry x="465" y="410" width="70" height="40" as="geometry" />
        </mxCell>
        <mxCell id="4OeSZwVJ-DLJTT9ifUoT-9" value="" style="endArrow=classic;html=1;rounded=0;entryX=0.75;entryY=1;entryDx=0;entryDy=0;exitX=0.158;exitY=0;exitDx=0;exitDy=0;exitPerimeter=0;" edge="1" parent="1" source="4OeSZwVJ-DLJTT9ifUoT-3" target="4OeSZwVJ-DLJTT9ifUoT-1">
          <mxGeometry width="50" height="50" relative="1" as="geometry">
            <mxPoint x="220" y="640" as="sourcePoint" />
            <mxPoint x="270" y="590" as="targetPoint" />
          </mxGeometry>
        </mxCell>
        <mxCell id="4OeSZwVJ-DLJTT9ifUoT-13" value="读取主内存值" style="edgeLabel;html=1;align=center;verticalAlign=middle;resizable=0;points=[];" vertex="1" connectable="0" parent="4OeSZwVJ-DLJTT9ifUoT-9">
          <mxGeometry x="-0.3123" y="-1" relative="1" as="geometry">
            <mxPoint y="6" as="offset" />
          </mxGeometry>
        </mxCell>
        <mxCell id="4OeSZwVJ-DLJTT9ifUoT-11" value="" style="endArrow=classic;html=1;rounded=0;entryX=0.75;entryY=1;entryDx=0;entryDy=0;exitX=0.684;exitY=-0.05;exitDx=0;exitDy=0;exitPerimeter=0;" edge="1" parent="1" source="4OeSZwVJ-DLJTT9ifUoT-3" target="4OeSZwVJ-DLJTT9ifUoT-2">
          <mxGeometry width="50" height="50" relative="1" as="geometry">
            <mxPoint x="550" y="590" as="sourcePoint" />
            <mxPoint x="600" y="540" as="targetPoint" />
          </mxGeometry>
        </mxCell>
        <mxCell id="4OeSZwVJ-DLJTT9ifUoT-15" value="读取主内存值" style="edgeLabel;html=1;align=center;verticalAlign=middle;resizable=0;points=[];" vertex="1" connectable="0" parent="4OeSZwVJ-DLJTT9ifUoT-11">
          <mxGeometry x="-0.4672" relative="1" as="geometry">
            <mxPoint as="offset" />
          </mxGeometry>
        </mxCell>
      </root>
    </mxGraphModel>
  </diagram>
</mxfile>
